HIERARCHY
ROOT Hips
{
	OFFSET 0.0000 0.0000 0.0000
	CHANNELS 6 Xposition Yposition Zposition Zrotation Yrotation Xrotation
	JOINT LeftUpLeg
	{
		OFFSET 9.0000 -3.0000 0.0000
		CHANNELS 6 Xposition Yposition Zposition Zrotation Yrotation Xrotation
		JOINT LeftLeg
		{
			OFFSET 0.0000 -42.0000 0.0000
			CHANNELS 6 Xposition Yposition Zposition Zrotation Yrotation Xrotation
			JOINT LeftFoot
			{
				OFFSET 0.0000 -41.0000 0.0000
				CHANNELS 6 Xposition Yposition Zposition Zrotation Yrotation Xrotation
				JOINT LeftToe
				{
					OFFSET 0.0000 -7.0000 12.5000
					CHANNELS 6 Xposition Yposition Zposition Zrotation Yrotation Xrotation
					End Site
					{
						OFFSET 0.0000 0.0000 4.0000
					}
				}
			}
		}
	}
	JOINT RightUpLeg
	{
		OFFSET -9.0000 -3.0000 0.0000
		CHANNELS 6 Xposition Yposition Zposition Zrotation Yrotation Xrotation
		JOINT RightLeg
		{
			OFFSET 0.0000 -42.0000 0.0000
			CHANNELS 6 Xposition Yposition Zposition Zrotation Yrotation Xrotation
			JOINT RightFoot
			{
				OFFSET 0.0000 -41.0000 0.0000
				CHANNELS 6 Xposition Yposition Zposition Zrotation Yrotation Xrotation
				JOINT RightToe
				{
					OFFSET 0.0000 -7.0000 12.5000
					CHANNELS 6 Xposition Yposition Zposition Zrotation Yrotation Xrotation
					End Site
					{
						OFFSET 0.0000 0.0000 4.0000
					}
				}
			}
		}
	}
	JOINT Spine
	{
		OFFSET 0.0000 10.0000 0.0000
		CHANNELS 6 Xposition Yposition Zposition Zrotation Yrotation Xrotation
		JOINT Spine1
		{
			OFFSET 0.0000 11.0000 0.0000
			CHANNELS 6 Xposition Yposition Zposition Zrotation Yrotation Xrotation
			JOINT Spine2
			{
				OFFSET 0.0000 11.0000 0.0000
				CHANNELS 6 Xposition Yposition Zposition Zrotation Yrotation Xrotation
				JOINT Neck
				{
					OFFSET 0.0000 11.0000 0.0000
					CHANNELS 6 Xposition Yposition Zposition Zrotation Yrotation Xrotation
					JOINT Head
					{
						OFFSET 0.0000 9.0000 0.0000
						CHANNELS 6 Xposition Yposition Zposition Zrotation Yrotation Xrotation
						End Site
						{
							OFFSET 0.0000 14.0000 0.0000
						}
					}
				}
				JOINT LeftShoulder
				{
					OFFSET 5.0000 8.0000 0.0000
					CHANNELS 6 Xposition Yposition Zposition Zrotation Yrotation Xrotation
					JOINT LeftArm
					{
						OFFSET 12.0000 0.0000 0.0000
						CHANNELS 6 Xposition Yposition Zposition Zrotation Yrotation Xrotation
						JOINT LeftForeArm
						{
							OFFSET 27.0000 0.0000 0.0000
							CHANNELS 6 Xposition Yposition Zposition Zrotation Yrotation Xrotation
							JOINT LeftHand
							{
								OFFSET 25.0000 0.0000 0.0000
								CHANNELS 6 Xposition Yposition Zposition Zrotation Yrotation Xrotation
								End Site
								{
									OFFSET 8.0000 0.0000 0.0000
								}
							}
						}
					}
				}
				JOINT RightShoulder
				{
					OFFSET -5.0000 8.0000 0.0000
					CHANNELS 6 Xposition Yposition Zposition Zrotation Yrotation Xrotation
					JOINT RightArm
					{
						OFFSET -12.0000 0.0000 0.0000
						CHANNELS 6 Xposition Yposition Zposition Zrotation Yrotation Xrotation
						JOINT RightForeArm
						{
							OFFSET -27.0000 0.0000 0.0000
							CHANNELS 6 Xposition Yposition Zposition Zrotation Yrotation Xrotation
							JOINT RightHand
							{
								OFFSET -25.0000 0.0000 0.0000
								CHANNELS 6 Xposition Yposition Zposition Zrotation Yrotation Xrotation
								End Site
								{
									OFFSET -8.0000 0.0000 0.0000
								}
							}
						}
					}
				}
			}
		}
	}
}
MOTION
Frames: 4
Frame Time: 0.0333333
0.0000 94.5000 0.0000 0.0000 0.0000 4.0000 9.0000 -3.0000 0.0000 0.0000 0.0000 -5.0000 0.0000 -42.0000 0.0000 0.0000 0.0000 48.0000 0.0000 -41.0000 0.0000 0.0000 0.0000 -43.0000 0.0000 -7.0000 12.5000 0.0000 0.0000 0.0000 -9.0000 -3.0000 0.0000 0.0000 0.0000 -5.0000 0.0000 -42.0000 0.0000 0.0000 0.0000 18.0000 0.0000 -41.0000 0.0000 0.0000 0.0000 -13.0000 0.0000 -7.0000 12.5000 0.0000 0.0000 0.0000 0.0000 10.0000 0.0000 0.0000 -0.0000 -2.0000 0.0000 11.0000 0.0000 0.0000 -0.0000 0.0000 0.0000 11.0000 0.0000 0.0000 -0.0000 -2.0000 0.0000 11.0000 0.0000 0.0000 0.0000 0.0000 0.0000 9.0000 0.0000 0.0000 0.0000 0.0000 5.0000 8.0000 0.0000 0.0000 0.0000 0.0000 12.0000 0.0000 0.0000 -72.0000 0.0000 0.0000 27.0000 0.0000 0.0000 -12.0000 0.0000 -12.0000 25.0000 0.0000 0.0000 0.0000 0.0000 0.0000 -5.0000 8.0000 0.0000 0.0000 0.0000 0.0000 -12.0000 0.0000 0.0000 72.0000 0.0000 0.0000 -27.0000 0.0000 0.0000 12.0000 0.0000 -12.0000 -25.0000 0.0000 0.0000 0.0000 0.0000 0.0000
0.3654 95.4782 2.8333 0.4567 0.6851 4.0000 9.0000 -3.0000 0.0000 0.0000 0.0000 -10.7088 0.0000 -42.0000 0.0000 0.0000 0.0000 47.2074 0.0000 -41.0000 0.0000 0.0000 0.0000 -36.4986 0.0000 -7.0000 12.5000 0.0000 0.0000 0.0000 -9.0000 -3.0000 0.0000 0.0000 0.0000 0.7088 0.0000 -42.0000 0.0000 0.0000 0.0000 18.0000 0.0000 -41.0000 0.0000 0.0000 0.0000 -18.7088 0.0000 -7.0000 12.5000 0.0000 0.0000 0.0000 0.0000 10.0000 0.0000 0.0000 -0.4567 -2.0000 0.0000 11.0000 0.0000 0.0000 -0.4567 0.0000 0.0000 11.0000 0.0000 0.0000 -0.4567 -2.0000 0.0000 11.0000 0.0000 0.0000 0.4567 0.0000 0.0000 9.0000 0.0000 0.0000 0.0000 0.0000 5.0000 8.0000 0.0000 0.0000 0.0000 0.0000 12.0000 0.0000 0.0000 -72.0000 0.0000 -4.1103 27.0000 0.0000 0.0000 -12.0000 0.0000 -14.2835 25.0000 0.0000 0.0000 0.0000 0.0000 0.0000 -5.0000 8.0000 0.0000 0.0000 0.0000 0.0000 -12.0000 0.0000 0.0000 72.0000 0.0000 4.1103 -27.0000 0.0000 0.0000 12.0000 0.0000 -9.7165 -25.0000 0.0000 0.0000 0.0000 0.0000 0.0000
0.7114 96.2524 5.6667 0.8893 1.3339 4.0000 9.0000 -3.0000 0.0000 0.0000 0.0000 -16.1159 0.0000 -42.0000 0.0000 0.0000 0.0000 44.8714 0.0000 -41.0000 0.0000 0.0000 0.0000 -28.7555 0.0000 -7.0000 12.5000 0.0000 0.0000 0.0000 -9.0000 -3.0000 0.0000 0.0000 0.0000 6.1159 0.0000 -42.0000 0.0000 0.0000 0.0000 18.0000 0.0000 -41.0000 0.0000 0.0000 0.0000 -24.1159 0.0000 -7.0000 12.5000 0.0000 0.0000 0.0000 0.0000 10.0000 0.0000 0.0000 -0.8893 -2.0000 0.0000 11.0000 0.0000 0.0000 -0.8893 0.0000 0.0000 11.0000 0.0000 0.0000 -0.8893 -2.0000 0.0000 11.0000 0.0000 0.0000 0.8893 0.0000 0.0000 9.0000 0.0000 0.0000 0.0000 0.0000 5.0000 8.0000 0.0000 0.0000 0.0000 0.0000 12.0000 0.0000 0.0000 -72.0000 0.0000 -8.0034 27.0000 0.0000 0.0000 -12.0000 0.0000 -16.4464 25.0000 0.0000 0.0000 0.0000 0.0000 0.0000 -5.0000 8.0000 0.0000 0.0000 0.0000 0.0000 -12.0000 0.0000 0.0000 72.0000 0.0000 8.0034 -27.0000 0.0000 0.0000 12.0000 0.0000 -7.5536 -25.0000 0.0000 0.0000 0.0000 0.0000 0.0000
1.0199 96.6610 8.5000 1.2748 1.9123 4.0000 9.0000 -3.0000 0.0000 0.0000 0.0000 -20.9356 0.0000 -42.0000 0.0000 0.0000 0.0000 41.1154 0.0000 -41.0000 0.0000 0.0000 0.0000 -20.1798 0.0000 -7.0000 12.5000 0.0000 0.0000 0.0000 -9.0000 -3.0000 0.0000 0.0000 0.0000 10.9356 0.0000 -42.0000 0.0000 0.0000 0.0000 18.0000 0.0000 -41.0000 0.0000 0.0000 0.0000 -28.9356 0.0000 -7.0000 12.5000 0.0000 0.0000 0.0000 0.0000 10.0000 0.0000 0.0000 -1.2748 -2.0000 0.0000 11.0000 0.0000 0.0000 -1.2748 0.0000 0.0000 11.0000 0.0000 0.0000 -1.2748 -2.0000 0.0000 11.0000 0.0000 0.0000 1.2748 0.0000 0.0000 9.0000 0.0000 0.0000 0.0000 0.0000 5.0000 8.0000 0.0000 0.0000 0.0000 0.0000 12.0000 0.0000 0.0000 -72.0000 0.0000 -11.4736 27.0000 0.0000 0.0000 -12.0000 0.0000 -18.3742 25.0000 0.0000 0.0000 0.0000 0.0000 0.0000 -5.0000 8.0000 0.0000 0.0000 0.0000 0.0000 -12.0000 0.0000 0.0000 72.0000 0.0000 11.4736 -27.0000 0.0000 0.0000 12.0000 0.0000 -5.6258 -25.0000 0.0000 0.0000 0.0000 0.0000 0.0000
